# xmcd
# 
# Track frame offsets:
#     150
#     18985
#     35336
#     52874
#     70838
#     102444
#     121535
#     138387
#     158328
#     175901
#     198737
#     217830
# 
# Disc length: 3171
# 
# Revision: 3
# Processed by: cddbd v1.5.2PL0 Copyright (c) Steve Scherf et al.
# Submitted via: fre:ac v1.0.31
# 
DISCID=950c610c
DTITLE=Neko Case - Hell-On
DYEAR=2018
DGENRE=Rock/Pop
TTITLE0=Hell-On
TTITLE1=Last Lion Of Albion
TTITLE2=Halls of Sarah
TTITLE3=Bad Luck
TTITLE4=Curse of the I-5 Corridor
TTITLE5=Gumball Blue
TTITLE6=Dirty Diamond
TTITLE7=Oracle Of The Maritime
TTITLE8=Winnie
TTITLE9=Sleep All Summer
TTITLE10=My Uncle's Navy
TTITLE11=Pitch Or Honey
EXTD=
EXTT0=
EXTT1=
EXTT2=
EXTT3=
EXTT4=
EXTT5=
EXTT6=
EXTT7=
EXTT8=
EXTT9=
EXTT10=
EXTT11=
PLAYORDER=
